<svg viewBox="0 0 15 26" width="10" height="17"
  xmlns="http://www.w3.org/2000/svg" fill="currentColor">
  <path d="M7.11 26C3.287 26 .178 22.757.178 18.772V5.312C.179 2.382 2.469 0 5.285 0 6.66 0 7.947.559 8.913 1.573a5.38 5.38 0 0 1 1.478 3.74v11.439c0 1.872-1.472 3.395-3.282 3.395-1.809 0-3.281-1.523-3.281-3.395V8.333a1 1 0 0 1 2 0v8.418c0 .769.575 1.394 1.281 1.394.707 0 1.282-.625 1.282-1.394V5.31c0-.894-.328-1.732-.926-2.36a2.998 2.998 0 0 0-2.18-.952c-1.713 0-3.106 1.485-3.106 3.312v13.46c0 2.882 2.212 5.228 4.93 5.228 2.72 0 4.932-2.346 4.932-5.228V8.333a1 1 0 0 1 2 0v10.439c0 3.985-3.109 7.228-6.932 7.228Z"></path>
</svg>